<svg font-family="system-ui, -apple-system, BlinkMacSystemFont, &apos;Segoe UI&apos;, sans-serif" height="418.0" role="img" viewBox="0 0 722.5 418.0" width="722.5" xmlns="http://www.w3.org/2000/svg"><g><g transform="translate(12.0,200.0)"><g transform="rotate(-90.0)"><g><text dominant-baseline="hanging" fill="rgb(51,51,51)" fill-opacity="1.0" font-size="13" text-anchor="middle">sepal width</text></g></g></g><g transform="translate(322.5,402.0)"><g><text dominant-baseline="hanging" fill="rgb(51,51,51)" fill-opacity="1.0" font-size="13" text-anchor="middle">sepal length</text></g></g><g transform="translate(632.5,8.0)"><g><text dominant-baseline="hanging" fill="rgb(51,51,51)" fill-opacity="1.0" font-size="9">species</text></g></g><g transform="translate(632.5,20.0)"><g><g transform="translate(0.0,0.0)"><g><g><rect fill="rgb(228,26,28)" fill-opacity="1.0" height="8" rx="4.0" ry="4.0" stroke="none" width="8" x="0" y="0" /></g></g></g><g transform="translate(12.0,0.0)"><g><text dominant-baseline="hanging" fill="rgb(51,51,51)" fill-opacity="1.0" font-size="10">setosa</text></g></g></g></g><g transform="translate(632.5,36.0)"><g><g transform="translate(0.0,0.0)"><g><g><rect fill="rgb(55,126,184)" fill-opacity="1.0" height="8" rx="4.0" ry="4.0" stroke="none" width="8" x="0" y="0" /></g></g></g><g transform="translate(12.0,0.0)"><g><text dominant-baseline="hanging" fill="rgb(51,51,51)" fill-opacity="1.0" font-size="10">versicolor</text></g></g></g></g><g transform="translate(632.5,52.0)"><g><g transform="translate(0.0,0.0)"><g><g><rect fill="rgb(77,175,74)" fill-opacity="1.0" height="8" rx="4.0" ry="4.0" stroke="none" width="8" x="0" y="0" /></g></g></g><g transform="translate(12.0,0.0)"><g><text dominant-baseline="hanging" fill="rgb(51,51,51)" fill-opacity="1.0" font-size="10">virginica</text></g></g></g></g><g transform="translate(22.5,0.0)"><g><g><g><g transform="translate(30.0,30.0)"><rect fill="rgb(232,232,232)" fill-opacity="1.0" height="340.0" stroke="none" width="540.0" x="0" y="0" /></g></g></g><g><g><g><polyline fill="none" points="81.81818181818181,30.0 81.81818181818181,370.0" stroke="rgb(245,245,245)" stroke-opacity="1.0" stroke-width="0.6" /></g></g></g><g><g><g><polyline fill="none" points="150.0,30.0 150.0,370.0" stroke="rgb(245,245,245)" stroke-opacity="1.0" stroke-width="0.6" /></g></g></g><g><g><g><polyline fill="none" points="218.18181818181816,30.0 218.18181818181816,370.0" stroke="rgb(245,245,245)" stroke-opacity="1.0" stroke-width="0.6" /></g></g></g><g><g><g><polyline fill="none" points="286.3636363636364,30.0 286.3636363636364,370.0" stroke="rgb(245,245,245)" stroke-opacity="1.0" stroke-width="0.6" /></g></g></g><g><g><g><polyline fill="none" points="354.54545454545456,30.0 354.54545454545456,370.0" stroke="rgb(245,245,245)" stroke-opacity="1.0" stroke-width="0.6" /></g></g></g><g><g><g><polyline fill="none" points="422.72727272727275,30.0 422.72727272727275,370.0" stroke="rgb(245,245,245)" stroke-opacity="1.0" stroke-width="0.6" /></g></g></g><g><g><g><polyline fill="none" points="490.9090909090909,30.0 490.9090909090909,370.0" stroke="rgb(245,245,245)" stroke-opacity="1.0" stroke-width="0.6" /></g></g></g><g><g><g><polyline fill="none" points="559.0909090909091,30.0 559.0909090909091,370.0" stroke="rgb(245,245,245)" stroke-opacity="1.0" stroke-width="0.6" /></g></g></g><g><g><g><polyline fill="none" points="30.0,354.54545454545456 570.0,354.54545454545456" stroke="rgb(245,245,245)" stroke-opacity="1.0" stroke-width="0.6" /></g></g></g><g><g><g><polyline fill="none" points="30.0,290.1515151515151 570.0,290.1515151515151" stroke="rgb(245,245,245)" stroke-opacity="1.0" stroke-width="0.6" /></g></g></g><g><g><g><polyline fill="none" points="30.0,225.75757575757578 570.0,225.75757575757578" stroke="rgb(245,245,245)" stroke-opacity="1.0" stroke-width="0.6" /></g></g></g><g><g><g><polyline fill="none" points="30.0,161.3636363636364 570.0,161.3636363636364" stroke="rgb(245,245,245)" stroke-opacity="1.0" stroke-width="0.6" /></g></g></g><g><g><g><polyline fill="none" points="30.0,96.969696969697 570.0,96.969696969697" stroke="rgb(245,245,245)" stroke-opacity="1.0" stroke-width="0.6" /></g></g></g><g><g><g><polyline fill="none" points="30.0,32.57575757575762 570.0,32.57575757575762" stroke="rgb(245,245,245)" stroke-opacity="1.0" stroke-width="0.6" /></g></g></g><g data-row-idx="0" transform="translate(160.63636363636357,158.3636363636364)"><g><g><rect fill="rgb(228,26,28)" fill-opacity="0.75" height="6.0" rx="3.0" ry="3.0" stroke="none" width="6.0" x="0" y="0" /></g></g></g><g data-row-idx="1" transform="translate(133.3636363636364,222.75757575757578)"><g><g><rect fill="rgb(228,26,28)" fill-opacity="0.75" height="6.0" rx="3.0" ry="3.0" stroke="none" width="6.0" x="0" y="0" /></g></g></g><g data-row-idx="2" transform="translate(106.09090909090911,197.0)"><g><g><rect fill="rgb(228,26,28)" fill-opacity="0.75" height="6.0" rx="3.0" ry="3.0" stroke="none" width="6.0" x="0" y="0" /></g></g></g><g data-row-idx="3" transform="translate(92.45454545454538,209.87878787878788)"><g><g><rect fill="rgb(228,26,28)" fill-opacity="0.75" height="6.0" rx="3.0" ry="3.0" stroke="none" width="6.0" x="0" y="0" /></g></g></g><g data-row-idx="4" transform="translate(147.0,145.4848484848485)"><g><g><rect fill="rgb(228,26,28)" fill-opacity="0.75" height="6.0" rx="3.0" ry="3.0" stroke="none" width="6.0" x="0" y="0" /></g></g></g><g data-row-idx="5" transform="translate(201.5454545454546,106.84848484848487)"><g><g><rect fill="rgb(228,26,28)" fill-opacity="0.75" height="6.0" rx="3.0" ry="3.0" stroke="none" width="6.0" x="0" y="0" /></g></g></g><g data-row-idx="6" transform="translate(92.45454545454538,171.24242424242428)"><g><g><rect fill="rgb(228,26,28)" fill-opacity="0.75" height="6.0" rx="3.0" ry="3.0" stroke="none" width="6.0" x="0" y="0" /></g></g></g><g data-row-idx="7" transform="translate(147.0,171.24242424242428)"><g><g><rect fill="rgb(228,26,28)" fill-opacity="0.75" height="6.0" rx="3.0" ry="3.0" stroke="none" width="6.0" x="0" y="0" /></g></g></g><g data-row-idx="8" transform="translate(65.18181818181822,235.63636363636365)"><g><g><rect fill="rgb(228,26,28)" fill-opacity="0.75" height="6.0" rx="3.0" ry="3.0" stroke="none" width="6.0" x="0" y="0" /></g></g></g><g data-row-idx="9" transform="translate(133.3636363636364,209.87878787878788)"><g><g><rect fill="rgb(228,26,28)" fill-opacity="0.75" height="6.0" rx="3.0" ry="3.0" stroke="none" width="6.0" x="0" y="0" /></g></g></g><g data-row-idx="10" transform="translate(201.5454545454546,132.60606060606062)"><g><g><rect fill="rgb(228,26,28)" fill-opacity="0.75" height="6.0" rx="3.0" ry="3.0" stroke="none" width="6.0" x="0" y="0" /></g></g></g><g data-row-idx="11" transform="translate(119.72727272727269,171.24242424242428)"><g><g><rect fill="rgb(228,26,28)" fill-opacity="0.75" height="6.0" rx="3.0" ry="3.0" stroke="none" width="6.0" x="0" y="0" /></g></g></g><g data-row-idx="12" transform="translate(119.72727272727269,222.75757575757578)"><g><g><rect fill="rgb(228,26,28)" fill-opacity="0.75" height="6.0" rx="3.0" ry="3.0" stroke="none" width="6.0" x="0" y="0" /></g></g></g><g data-row-idx="13" transform="translate(51.545454545454504,222.75757575757578)"><g><g><rect fill="rgb(228,26,28)" fill-opacity="0.75" height="6.0" rx="3.0" ry="3.0" stroke="none" width="6.0" x="0" y="0" /></g></g></g><g data-row-idx="14" transform="translate(256.09090909090907,93.969696969697)"><g><g><rect fill="rgb(228,26,28)" fill-opacity="0.75" height="6.0" rx="3.0" ry="3.0" stroke="none" width="6.0" x="0" y="0" /></g></g></g><g data-row-idx="15" transform="translate(242.45454545454547,42.454545454545496)"><g><g><rect fill="rgb(228,26,28)" fill-opacity="0.75" height="6.0" rx="3.0" ry="3.0" stroke="none" width="6.0" x="0" y="0" /></g></g></g><g data-row-idx="16" transform="translate(201.5454545454546,106.84848484848487)"><g><g><rect fill="rgb(228,26,28)" fill-opacity="0.75" height="6.0" rx="3.0" ry="3.0" stroke="none" width="6.0" x="0" y="0" /></g></g></g><g data-row-idx="17" transform="translate(160.63636363636357,158.3636363636364)"><g><g><rect fill="rgb(228,26,28)" fill-opacity="0.75" height="6.0" rx="3.0" ry="3.0" stroke="none" width="6.0" x="0" y="0" /></g></g></g><g data-row-idx="18" transform="translate(242.45454545454547,119.7272727272728)"><g><g><rect fill="rgb(228,26,28)" fill-opacity="0.75" height="6.0" rx="3.0" ry="3.0" stroke="none" width="6.0" x="0" y="0" /></g></g></g><g data-row-idx="19" transform="translate(160.63636363636357,119.7272727272728)"><g><g><rect fill="rgb(228,26,28)" fill-opacity="0.75" height="6.0" rx="3.0" ry="3.0" stroke="none" width="6.0" x="0" y="0" /></g></g></g><g data-row-idx="20" transform="translate(201.5454545454546,171.24242424242428)"><g><g><rect fill="rgb(228,26,28)" fill-opacity="0.75" height="6.0" rx="3.0" ry="3.0" stroke="none" width="6.0" x="0" y="0" /></g></g></g><g data-row-idx="21" transform="translate(160.63636363636357,132.60606060606062)"><g><g><rect fill="rgb(228,26,28)" fill-opacity="0.75" height="6.0" rx="3.0" ry="3.0" stroke="none" width="6.0" x="0" y="0" /></g></g></g><g data-row-idx="22" transform="translate(92.45454545454538,145.4848484848485)"><g><g><rect fill="rgb(228,26,28)" fill-opacity="0.75" height="6.0" rx="3.0" ry="3.0" stroke="none" width="6.0" x="0" y="0" /></g></g></g><g data-row-idx="23" transform="translate(160.63636363636357,184.12121212121218)"><g><g><rect fill="rgb(228,26,28)" fill-opacity="0.75" height="6.0" rx="3.0" ry="3.0" stroke="none" width="6.0" x="0" y="0" /></g></g></g><g data-row-idx="24" transform="translate(119.72727272727269,171.24242424242428)"><g><g><rect fill="rgb(228,26,28)" fill-opacity="0.75" height="6.0" rx="3.0" ry="3.0" stroke="none" width="6.0" x="0" y="0" /></g></g></g><g data-row-idx="25" transform="translate(147.0,222.75757575757578)"><g><g><rect fill="rgb(228,26,28)" fill-opacity="0.75" height="6.0" rx="3.0" ry="3.0" stroke="none" width="6.0" x="0" y="0" /></g></g></g><g data-row-idx="26" transform="translate(147.0,171.24242424242428)"><g><g><rect fill="rgb(228,26,28)" fill-opacity="0.75" height="6.0" rx="3.0" ry="3.0" stroke="none" width="6.0" x="0" y="0" /></g></g></g><g data-row-idx="27" transform="translate(174.27272727272728,158.3636363636364)"><g><g><rect fill="rgb(228,26,28)" fill-opacity="0.75" height="6.0" rx="3.0" ry="3.0" stroke="none" width="6.0" x="0" y="0" /></g></g></g><g data-row-idx="28" transform="translate(174.27272727272728,171.24242424242428)"><g><g><rect fill="rgb(228,26,28)" fill-opacity="0.75" height="6.0" rx="3.0" ry="3.0" stroke="none" width="6.0" x="0" y="0" /></g></g></g><g data-row-idx="29" transform="translate(106.09090909090911,197.0)"><g><g><rect fill="rgb(228,26,28)" fill-opacity="0.75" height="6.0" rx="3.0" ry="3.0" stroke="none" width="6.0" x="0" y="0" /></g></g></g><g data-row-idx="30" transform="translate(119.72727272727269,209.87878787878788)"><g><g><rect fill="rgb(228,26,28)" fill-opacity="0.75" height="6.0" rx="3.0" ry="3.0" stroke="none" width="6.0" x="0" y="0" /></g></g></g><g data-row-idx="31" transform="translate(201.5454545454546,171.24242424242428)"><g><g><rect fill="rgb(228,26,28)" fill-opacity="0.75" height="6.0" rx="3.0" ry="3.0" stroke="none" width="6.0" x="0" y="0" /></g></g></g><g data-row-idx="32" transform="translate(174.27272727272728,81.09090909090918)"><g><g><rect fill="rgb(228,26,28)" fill-opacity="0.75" height="6.0" rx="3.0" ry="3.0" stroke="none" width="6.0" x="0" y="0" /></g></g></g><g data-row-idx="33" transform="translate(215.18181818181816,68.21212121212125)"><g><g><rect fill="rgb(228,26,28)" fill-opacity="0.75" height="6.0" rx="3.0" ry="3.0" stroke="none" width="6.0" x="0" y="0" /></g></g></g><g data-row-idx="34" transform="translate(133.3636363636364,209.87878787878788)"><g><g><rect fill="rgb(228,26,28)" fill-opacity="0.75" height="6.0" rx="3.0" ry="3.0" stroke="none" width="6.0" x="0" y="0" /></g></g></g><g data-row-idx="35" transform="translate(147.0,197.0)"><g><g><rect fill="rgb(228,26,28)" fill-opacity="0.75" height="6.0" rx="3.0" ry="3.0" stroke="none" width="6.0" x="0" y="0" /></g></g></g><g data-row-idx="36" transform="translate(215.18181818181816,158.3636363636364)"><g><g><rect fill="rgb(228,26,28)" fill-opacity="0.75" height="6.0" rx="3.0" ry="3.0" stroke="none" width="6.0" x="0" y="0" /></g></g></g><g data-row-idx="37" transform="translate(133.3636363636364,145.4848484848485)"><g><g><rect fill="rgb(228,26,28)" fill-opacity="0.75" height="6.0" rx="3.0" ry="3.0" stroke="none" width="6.0" x="0" y="0" /></g></g></g><g data-row-idx="38" transform="translate(65.18181818181822,222.75757575757578)"><g><g><rect fill="rgb(228,26,28)" fill-opacity="0.75" height="6.0" rx="3.0" ry="3.0" stroke="none" width="6.0" x="0" y="0" /></g></g></g><g data-row-idx="39" transform="translate(160.63636363636357,171.24242424242428)"><g><g><rect fill="rgb(228,26,28)" fill-opacity="0.75" height="6.0" rx="3.0" ry="3.0" stroke="none" width="6.0" x="0" y="0" /></g></g></g><g data-row-idx="40" transform="translate(147.0,158.3636363636364)"><g><g><rect fill="rgb(228,26,28)" fill-opacity="0.75" height="6.0" rx="3.0" ry="3.0" stroke="none" width="6.0" x="0" y="0" /></g></g></g><g data-row-idx="41" transform="translate(78.81818181818181,312.90909090909093)"><g><g><rect fill="rgb(228,26,28)" fill-opacity="0.75" height="6.0" rx="3.0" ry="3.0" stroke="none" width="6.0" x="0" y="0" /></g></g></g><g data-row-idx="42" transform="translate(65.18181818181822,197.0)"><g><g><rect fill="rgb(228,26,28)" fill-opacity="0.75" height="6.0" rx="3.0" ry="3.0" stroke="none" width="6.0" x="0" y="0" /></g></g></g><g data-row-idx="43" transform="translate(147.0,158.3636363636364)"><g><g><rect fill="rgb(228,26,28)" fill-opacity="0.75" height="6.0" rx="3.0" ry="3.0" stroke="none" width="6.0" x="0" y="0" /></g></g></g><g data-row-idx="44" transform="translate(160.63636363636357,119.7272727272728)"><g><g><rect fill="rgb(228,26,28)" fill-opacity="0.75" height="6.0" rx="3.0" ry="3.0" stroke="none" width="6.0" x="0" y="0" /></g></g></g><g data-row-idx="45" transform="translate(119.72727272727269,222.75757575757578)"><g><g><rect fill="rgb(228,26,28)" fill-opacity="0.75" height="6.0" rx="3.0" ry="3.0" stroke="none" width="6.0" x="0" y="0" /></g></g></g><g data-row-idx="46" transform="translate(160.63636363636357,119.7272727272728)"><g><g><rect fill="rgb(228,26,28)" fill-opacity="0.75" height="6.0" rx="3.0" ry="3.0" stroke="none" width="6.0" x="0" y="0" /></g></g></g><g data-row-idx="47" transform="translate(92.45454545454538,197.0)"><g><g><rect fill="rgb(228,26,28)" fill-opacity="0.75" height="6.0" rx="3.0" ry="3.0" stroke="none" width="6.0" x="0" y="0" /></g></g></g><g data-row-idx="48" transform="translate(187.90909090909088,132.60606060606062)"><g><g><rect fill="rgb(228,26,28)" fill-opacity="0.75" height="6.0" rx="3.0" ry="3.0" stroke="none" width="6.0" x="0" y="0" /></g></g></g><g data-row-idx="49" transform="translate(147.0,184.12121212121218)"><g><g><rect fill="rgb(228,26,28)" fill-opacity="0.75" height="6.0" rx="3.0" ry="3.0" stroke="none" width="6.0" x="0" y="0" /></g></g></g><g data-row-idx="50" transform="translate(419.72727272727275,197.0)"><g><g><rect fill="rgb(55,126,184)" fill-opacity="0.75" height="6.0" rx="3.0" ry="3.0" stroke="none" width="6.0" x="0" y="0" /></g></g></g><g data-row-idx="51" transform="translate(337.90909090909093,197.0)"><g><g><rect fill="rgb(55,126,184)" fill-opacity="0.75" height="6.0" rx="3.0" ry="3.0" stroke="none" width="6.0" x="0" y="0" /></g></g></g><g data-row-idx="52" transform="translate(406.0909090909091,209.87878787878788)"><g><g><rect fill="rgb(55,126,184)" fill-opacity="0.75" height="6.0" rx="3.0" ry="3.0" stroke="none" width="6.0" x="0" y="0" /></g></g></g><g data-row-idx="53" transform="translate(215.18181818181816,312.90909090909093)"><g><g><rect fill="rgb(55,126,184)" fill-opacity="0.75" height="6.0" rx="3.0" ry="3.0" stroke="none" width="6.0" x="0" y="0" /></g></g></g><g data-row-idx="54" transform="translate(351.54545454545456,248.51515151515156)"><g><g><rect fill="rgb(55,126,184)" fill-opacity="0.75" height="6.0" rx="3.0" ry="3.0" stroke="none" width="6.0" x="0" y="0" /></g></g></g><g data-row-idx="55" transform="translate(242.45454545454547,248.51515151515156)"><g><g><rect fill="rgb(55,126,184)" fill-opacity="0.75" height="6.0" rx="3.0" ry="3.0" stroke="none" width="6.0" x="0" y="0" /></g></g></g><g data-row-idx="56" transform="translate(324.2727272727272,184.12121212121218)"><g><g><rect fill="rgb(55,126,184)" fill-opacity="0.75" height="6.0" rx="3.0" ry="3.0" stroke="none" width="6.0" x="0" y="0" /></g></g></g><g data-row-idx="57" transform="translate(133.3636363636364,300.03030303030306)"><g><g><rect fill="rgb(55,126,184)" fill-opacity="0.75" height="6.0" rx="3.0" ry="3.0" stroke="none" width="6.0" x="0" y="0" /></g></g></g><g data-row-idx="58" transform="translate(365.18181818181813,235.63636363636365)"><g><g><rect fill="rgb(55,126,184)" fill-opacity="0.75" height="6.0" rx="3.0" ry="3.0" stroke="none" width="6.0" x="0" y="0" /></g></g></g><g data-row-idx="59" transform="translate(174.27272727272728,261.3939393939394)"><g><g><rect fill="rgb(55,126,184)" fill-opacity="0.75" height="6.0" rx="3.0" ry="3.0" stroke="none" width="6.0" x="0" y="0" /></g></g></g><g data-row-idx="60" transform="translate(147.0,351.54545454545456)"><g><g><rect fill="rgb(55,126,184)" fill-opacity="0.75" height="6.0" rx="3.0" ry="3.0" stroke="none" width="6.0" x="0" y="0" /></g></g></g><g data-row-idx="61" transform="translate(269.72727272727275,222.75757575757578)"><g><g><rect fill="rgb(55,126,184)" fill-opacity="0.75" height="6.0" rx="3.0" ry="3.0" stroke="none" width="6.0" x="0" y="0" /></g></g></g><g data-row-idx="62" transform="translate(283.3636363636364,325.78787878787875)"><g><g><rect fill="rgb(55,126,184)" fill-opacity="0.75" height="6.0" rx="3.0" ry="3.0" stroke="none" width="6.0" x="0" y="0" /></g></g></g><g data-row-idx="63" transform="translate(296.99999999999994,235.63636363636365)"><g><g><rect fill="rgb(55,126,184)" fill-opacity="0.75" height="6.0" rx="3.0" ry="3.0" stroke="none" width="6.0" x="0" y="0" /></g></g></g><g data-row-idx="64" transform="translate(228.81818181818176,235.63636363636365)"><g><g><rect fill="rgb(55,126,184)" fill-opacity="0.75" height="6.0" rx="3.0" ry="3.0" stroke="none" width="6.0" x="0" y="0" /></g></g></g><g data-row-idx="65" transform="translate(378.8181818181818,209.87878787878788)"><g><g><rect fill="rgb(55,126,184)" fill-opacity="0.75" height="6.0" rx="3.0" ry="3.0" stroke="none" width="6.0" x="0" y="0" /></g></g></g><g data-row-idx="66" transform="translate(228.81818181818176,222.75757575757578)"><g><g><rect fill="rgb(55,126,184)" fill-opacity="0.75" height="6.0" rx="3.0" ry="3.0" stroke="none" width="6.0" x="0" y="0" /></g></g></g><g data-row-idx="67" transform="translate(256.09090909090907,261.3939393939394)"><g><g><rect fill="rgb(55,126,184)" fill-opacity="0.75" height="6.0" rx="3.0" ry="3.0" stroke="none" width="6.0" x="0" y="0" /></g></g></g><g data-row-idx="68" transform="translate(310.6363636363637,325.78787878787875)"><g><g><rect fill="rgb(55,126,184)" fill-opacity="0.75" height="6.0" rx="3.0" ry="3.0" stroke="none" width="6.0" x="0" y="0" /></g></g></g><g data-row-idx="69" transform="translate(228.81818181818176,287.1515151515151)"><g><g><rect fill="rgb(55,126,184)" fill-opacity="0.75" height="6.0" rx="3.0" ry="3.0" stroke="none" width="6.0" x="0" y="0" /></g></g></g><g data-row-idx="70" transform="translate(269.72727272727275,197.0)"><g><g><rect fill="rgb(55,126,184)" fill-opacity="0.75" height="6.0" rx="3.0" ry="3.0" stroke="none" width="6.0" x="0" y="0" /></g></g></g><g data-row-idx="71" transform="translate(296.99999999999994,248.51515151515156)"><g><g><rect fill="rgb(55,126,184)" fill-opacity="0.75" height="6.0" rx="3.0" ry="3.0" stroke="none" width="6.0" x="0" y="0" /></g></g></g><g data-row-idx="72" transform="translate(324.2727272727272,287.1515151515151)"><g><g><rect fill="rgb(55,126,184)" fill-opacity="0.75" height="6.0" rx="3.0" ry="3.0" stroke="none" width="6.0" x="0" y="0" /></g></g></g><g data-row-idx="73" transform="translate(296.99999999999994,248.51515151515156)"><g><g><rect fill="rgb(55,126,184)" fill-opacity="0.75" height="6.0" rx="3.0" ry="3.0" stroke="none" width="6.0" x="0" y="0" /></g></g></g><g data-row-idx="74" transform="translate(337.90909090909093,235.63636363636365)"><g><g><rect fill="rgb(55,126,184)" fill-opacity="0.75" height="6.0" rx="3.0" ry="3.0" stroke="none" width="6.0" x="0" y="0" /></g></g></g><g data-row-idx="75" transform="translate(365.18181818181813,222.75757575757578)"><g><g><rect fill="rgb(55,126,184)" fill-opacity="0.75" height="6.0" rx="3.0" ry="3.0" stroke="none" width="6.0" x="0" y="0" /></g></g></g><g data-row-idx="76" transform="translate(392.4545454545454,248.51515151515156)"><g><g><rect fill="rgb(55,126,184)" fill-opacity="0.75" height="6.0" rx="3.0" ry="3.0" stroke="none" width="6.0" x="0" y="0" /></g></g></g><g data-row-idx="77" transform="translate(378.8181818181818,222.75757575757578)"><g><g><rect fill="rgb(55,126,184)" fill-opacity="0.75" height="6.0" rx="3.0" ry="3.0" stroke="none" width="6.0" x="0" y="0" /></g></g></g><g data-row-idx="78" transform="translate(283.3636363636364,235.63636363636365)"><g><g><rect fill="rgb(55,126,184)" fill-opacity="0.75" height="6.0" rx="3.0" ry="3.0" stroke="none" width="6.0" x="0" y="0" /></g></g></g><g data-row-idx="79" transform="translate(242.45454545454547,274.27272727272725)"><g><g><rect fill="rgb(55,126,184)" fill-opacity="0.75" height="6.0" rx="3.0" ry="3.0" stroke="none" width="6.0" x="0" y="0" /></g></g></g><g data-row-idx="80" transform="translate(215.18181818181816,300.03030303030306)"><g><g><rect fill="rgb(55,126,184)" fill-opacity="0.75" height="6.0" rx="3.0" ry="3.0" stroke="none" width="6.0" x="0" y="0" /></g></g></g><g data-row-idx="81" transform="translate(215.18181818181816,300.03030303030306)"><g><g><rect fill="rgb(55,126,184)" fill-opacity="0.75" height="6.0" rx="3.0" ry="3.0" stroke="none" width="6.0" x="0" y="0" /></g></g></g><g data-row-idx="82" transform="translate(256.09090909090907,261.3939393939394)"><g><g><rect fill="rgb(55,126,184)" fill-opacity="0.75" height="6.0" rx="3.0" ry="3.0" stroke="none" width="6.0" x="0" y="0" /></g></g></g><g data-row-idx="83" transform="translate(283.3636363636364,261.3939393939394)"><g><g><rect fill="rgb(55,126,184)" fill-opacity="0.75" height="6.0" rx="3.0" ry="3.0" stroke="none" width="6.0" x="0" y="0" /></g></g></g><g data-row-idx="84" transform="translate(201.5454545454546,222.75757575757578)"><g><g><rect fill="rgb(55,126,184)" fill-opacity="0.75" height="6.0" rx="3.0" ry="3.0" stroke="none" width="6.0" x="0" y="0" /></g></g></g><g data-row-idx="85" transform="translate(283.3636363636364,171.24242424242428)"><g><g><rect fill="rgb(55,126,184)" fill-opacity="0.75" height="6.0" rx="3.0" ry="3.0" stroke="none" width="6.0" x="0" y="0" /></g></g></g><g data-row-idx="86" transform="translate(378.8181818181818,209.87878787878788)"><g><g><rect fill="rgb(55,126,184)" fill-opacity="0.75" height="6.0" rx="3.0" ry="3.0" stroke="none" width="6.0" x="0" y="0" /></g></g></g><g data-row-idx="87" transform="translate(324.2727272727272,312.90909090909093)"><g><g><rect fill="rgb(55,126,184)" fill-opacity="0.75" height="6.0" rx="3.0" ry="3.0" stroke="none" width="6.0" x="0" y="0" /></g></g></g><g data-row-idx="88" transform="translate(228.81818181818176,222.75757575757578)"><g><g><rect fill="rgb(55,126,184)" fill-opacity="0.75" height="6.0" rx="3.0" ry="3.0" stroke="none" width="6.0" x="0" y="0" /></g></g></g><g data-row-idx="89" transform="translate(215.18181818181816,287.1515151515151)"><g><g><rect fill="rgb(55,126,184)" fill-opacity="0.75" height="6.0" rx="3.0" ry="3.0" stroke="none" width="6.0" x="0" y="0" /></g></g></g><g data-row-idx="90" transform="translate(215.18181818181816,274.27272727272725)"><g><g><rect fill="rgb(55,126,184)" fill-opacity="0.75" height="6.0" rx="3.0" ry="3.0" stroke="none" width="6.0" x="0" y="0" /></g></g></g><g data-row-idx="91" transform="translate(296.99999999999994,222.75757575757578)"><g><g><rect fill="rgb(55,126,184)" fill-opacity="0.75" height="6.0" rx="3.0" ry="3.0" stroke="none" width="6.0" x="0" y="0" /></g></g></g><g data-row-idx="92" transform="translate(256.09090909090907,274.27272727272725)"><g><g><rect fill="rgb(55,126,184)" fill-opacity="0.75" height="6.0" rx="3.0" ry="3.0" stroke="none" width="6.0" x="0" y="0" /></g></g></g><g data-row-idx="93" transform="translate(147.0,312.90909090909093)"><g><g><rect fill="rgb(55,126,184)" fill-opacity="0.75" height="6.0" rx="3.0" ry="3.0" stroke="none" width="6.0" x="0" y="0" /></g></g></g><g data-row-idx="94" transform="translate(228.81818181818176,261.3939393939394)"><g><g><rect fill="rgb(55,126,184)" fill-opacity="0.75" height="6.0" rx="3.0" ry="3.0" stroke="none" width="6.0" x="0" y="0" /></g></g></g><g data-row-idx="95" transform="translate(242.45454545454547,222.75757575757578)"><g><g><rect fill="rgb(55,126,184)" fill-opacity="0.75" height="6.0" rx="3.0" ry="3.0" stroke="none" width="6.0" x="0" y="0" /></g></g></g><g data-row-idx="96" transform="translate(242.45454545454547,235.63636363636365)"><g><g><rect fill="rgb(55,126,184)" fill-opacity="0.75" height="6.0" rx="3.0" ry="3.0" stroke="none" width="6.0" x="0" y="0" /></g></g></g><g data-row-idx="97" transform="translate(310.6363636363637,235.63636363636365)"><g><g><rect fill="rgb(55,126,184)" fill-opacity="0.75" height="6.0" rx="3.0" ry="3.0" stroke="none" width="6.0" x="0" y="0" /></g></g></g><g data-row-idx="98" transform="translate(160.63636363636357,287.1515151515151)"><g><g><rect fill="rgb(55,126,184)" fill-opacity="0.75" height="6.0" rx="3.0" ry="3.0" stroke="none" width="6.0" x="0" y="0" /></g></g></g><g data-row-idx="99" transform="translate(242.45454545454547,248.51515151515156)"><g><g><rect fill="rgb(55,126,184)" fill-opacity="0.75" height="6.0" rx="3.0" ry="3.0" stroke="none" width="6.0" x="0" y="0" /></g></g></g><g data-row-idx="100" transform="translate(324.2727272727272,184.12121212121218)"><g><g><rect fill="rgb(77,175,74)" fill-opacity="0.75" height="6.0" rx="3.0" ry="3.0" stroke="none" width="6.0" x="0" y="0" /></g></g></g><g data-row-idx="101" transform="translate(256.09090909090907,261.3939393939394)"><g><g><rect fill="rgb(77,175,74)" fill-opacity="0.75" height="6.0" rx="3.0" ry="3.0" stroke="none" width="6.0" x="0" y="0" /></g></g></g><g data-row-idx="102" transform="translate(433.36363636363626,222.75757575757578)"><g><g><rect fill="rgb(77,175,74)" fill-opacity="0.75" height="6.0" rx="3.0" ry="3.0" stroke="none" width="6.0" x="0" y="0" /></g></g></g><g data-row-idx="103" transform="translate(324.2727272727272,235.63636363636365)"><g><g><rect fill="rgb(77,175,74)" fill-opacity="0.75" height="6.0" rx="3.0" ry="3.0" stroke="none" width="6.0" x="0" y="0" /></g></g></g><g data-row-idx="104" transform="translate(351.54545454545456,222.75757575757578)"><g><g><rect fill="rgb(77,175,74)" fill-opacity="0.75" height="6.0" rx="3.0" ry="3.0" stroke="none" width="6.0" x="0" y="0" /></g></g></g><g data-row-idx="105" transform="translate(501.5454545454545,222.75757575757578)"><g><g><rect fill="rgb(77,175,74)" fill-opacity="0.75" height="6.0" rx="3.0" ry="3.0" stroke="none" width="6.0" x="0" y="0" /></g></g></g><g data-row-idx="106" transform="translate(133.3636363636364,287.1515151515151)"><g><g><rect fill="rgb(77,175,74)" fill-opacity="0.75" height="6.0" rx="3.0" ry="3.0" stroke="none" width="6.0" x="0" y="0" /></g></g></g><g data-row-idx="107" transform="translate(460.6363636363636,235.63636363636365)"><g><g><rect fill="rgb(77,175,74)" fill-opacity="0.75" height="6.0" rx="3.0" ry="3.0" stroke="none" width="6.0" x="0" y="0" /></g></g></g><g data-row-idx="108" transform="translate(378.8181818181818,287.1515151515151)"><g><g><rect fill="rgb(77,175,74)" fill-opacity="0.75" height="6.0" rx="3.0" ry="3.0" stroke="none" width="6.0" x="0" y="0" /></g></g></g><g data-row-idx="109" transform="translate(447.0,145.4848484848485)"><g><g><rect fill="rgb(77,175,74)" fill-opacity="0.75" height="6.0" rx="3.0" ry="3.0" stroke="none" width="6.0" x="0" y="0" /></g></g></g><g data-row-idx="110" transform="translate(351.54545454545456,197.0)"><g><g><rect fill="rgb(77,175,74)" fill-opacity="0.75" height="6.0" rx="3.0" ry="3.0" stroke="none" width="6.0" x="0" y="0" /></g></g></g><g data-row-idx="111" transform="translate(337.90909090909093,261.3939393939394)"><g><g><rect fill="rgb(77,175,74)" fill-opacity="0.75" height="6.0" rx="3.0" ry="3.0" stroke="none" width="6.0" x="0" y="0" /></g></g></g><g data-row-idx="112" transform="translate(392.4545454545454,222.75757575757578)"><g><g><rect fill="rgb(77,175,74)" fill-opacity="0.75" height="6.0" rx="3.0" ry="3.0" stroke="none" width="6.0" x="0" y="0" /></g></g></g><g data-row-idx="113" transform="translate(242.45454545454547,287.1515151515151)"><g><g><rect fill="rgb(77,175,74)" fill-opacity="0.75" height="6.0" rx="3.0" ry="3.0" stroke="none" width="6.0" x="0" y="0" /></g></g></g><g data-row-idx="114" transform="translate(256.09090909090907,248.51515151515156)"><g><g><rect fill="rgb(77,175,74)" fill-opacity="0.75" height="6.0" rx="3.0" ry="3.0" stroke="none" width="6.0" x="0" y="0" /></g></g></g><g data-row-idx="115" transform="translate(337.90909090909093,197.0)"><g><g><rect fill="rgb(77,175,74)" fill-opacity="0.75" height="6.0" rx="3.0" ry="3.0" stroke="none" width="6.0" x="0" y="0" /></g></g></g><g data-row-idx="116" transform="translate(351.54545454545456,222.75757575757578)"><g><g><rect fill="rgb(77,175,74)" fill-opacity="0.75" height="6.0" rx="3.0" ry="3.0" stroke="none" width="6.0" x="0" y="0" /></g></g></g><g data-row-idx="117" transform="translate(515.1818181818182,119.7272727272728)"><g><g><rect fill="rgb(77,175,74)" fill-opacity="0.75" height="6.0" rx="3.0" ry="3.0" stroke="none" width="6.0" x="0" y="0" /></g></g></g><g data-row-idx="118" transform="translate(515.1818181818182,274.27272727272725)"><g><g><rect fill="rgb(77,175,74)" fill-opacity="0.75" height="6.0" rx="3.0" ry="3.0" stroke="none" width="6.0" x="0" y="0" /></g></g></g><g data-row-idx="119" transform="translate(283.3636363636364,325.78787878787875)"><g><g><rect fill="rgb(77,175,74)" fill-opacity="0.75" height="6.0" rx="3.0" ry="3.0" stroke="none" width="6.0" x="0" y="0" /></g></g></g><g data-row-idx="120" transform="translate(406.0909090909091,197.0)"><g><g><rect fill="rgb(77,175,74)" fill-opacity="0.75" height="6.0" rx="3.0" ry="3.0" stroke="none" width="6.0" x="0" y="0" /></g></g></g><g data-row-idx="121" transform="translate(228.81818181818176,248.51515151515156)"><g><g><rect fill="rgb(77,175,74)" fill-opacity="0.75" height="6.0" rx="3.0" ry="3.0" stroke="none" width="6.0" x="0" y="0" /></g></g></g><g data-row-idx="122" transform="translate(515.1818181818182,248.51515151515156)"><g><g><rect fill="rgb(77,175,74)" fill-opacity="0.75" height="6.0" rx="3.0" ry="3.0" stroke="none" width="6.0" x="0" y="0" /></g></g></g><g data-row-idx="123" transform="translate(324.2727272727272,261.3939393939394)"><g><g><rect fill="rgb(77,175,74)" fill-opacity="0.75" height="6.0" rx="3.0" ry="3.0" stroke="none" width="6.0" x="0" y="0" /></g></g></g><g data-row-idx="124" transform="translate(378.8181818181818,184.12121212121218)"><g><g><rect fill="rgb(77,175,74)" fill-opacity="0.75" height="6.0" rx="3.0" ry="3.0" stroke="none" width="6.0" x="0" y="0" /></g></g></g><g data-row-idx="125" transform="translate(447.0,197.0)"><g><g><rect fill="rgb(77,175,74)" fill-opacity="0.75" height="6.0" rx="3.0" ry="3.0" stroke="none" width="6.0" x="0" y="0" /></g></g></g><g data-row-idx="126" transform="translate(310.6363636363637,248.51515151515156)"><g><g><rect fill="rgb(77,175,74)" fill-opacity="0.75" height="6.0" rx="3.0" ry="3.0" stroke="none" width="6.0" x="0" y="0" /></g></g></g><g data-row-idx="127" transform="translate(296.99999999999994,222.75757575757578)"><g><g><rect fill="rgb(77,175,74)" fill-opacity="0.75" height="6.0" rx="3.0" ry="3.0" stroke="none" width="6.0" x="0" y="0" /></g></g></g><g data-row-idx="128" transform="translate(337.90909090909093,248.51515151515156)"><g><g><rect fill="rgb(77,175,74)" fill-opacity="0.75" height="6.0" rx="3.0" ry="3.0" stroke="none" width="6.0" x="0" y="0" /></g></g></g><g data-row-idx="129" transform="translate(447.0,222.75757575757578)"><g><g><rect fill="rgb(77,175,74)" fill-opacity="0.75" height="6.0" rx="3.0" ry="3.0" stroke="none" width="6.0" x="0" y="0" /></g></g></g><g data-row-idx="130" transform="translate(474.2727272727273,248.51515151515156)"><g><g><rect fill="rgb(77,175,74)" fill-opacity="0.75" height="6.0" rx="3.0" ry="3.0" stroke="none" width="6.0" x="0" y="0" /></g></g></g><g data-row-idx="131" transform="translate(542.4545454545455,119.7272727272728)"><g><g><rect fill="rgb(77,175,74)" fill-opacity="0.75" height="6.0" rx="3.0" ry="3.0" stroke="none" width="6.0" x="0" y="0" /></g></g></g><g data-row-idx="132" transform="translate(337.90909090909093,248.51515151515156)"><g><g><rect fill="rgb(77,175,74)" fill-opacity="0.75" height="6.0" rx="3.0" ry="3.0" stroke="none" width="6.0" x="0" y="0" /></g></g></g><g data-row-idx="133" transform="translate(324.2727272727272,248.51515151515156)"><g><g><rect fill="rgb(77,175,74)" fill-opacity="0.75" height="6.0" rx="3.0" ry="3.0" stroke="none" width="6.0" x="0" y="0" /></g></g></g><g data-row-idx="134" transform="translate(296.99999999999994,274.27272727272725)"><g><g><rect fill="rgb(77,175,74)" fill-opacity="0.75" height="6.0" rx="3.0" ry="3.0" stroke="none" width="6.0" x="0" y="0" /></g></g></g><g data-row-idx="135" transform="translate(515.1818181818182,222.75757575757578)"><g><g><rect fill="rgb(77,175,74)" fill-opacity="0.75" height="6.0" rx="3.0" ry="3.0" stroke="none" width="6.0" x="0" y="0" /></g></g></g><g data-row-idx="136" transform="translate(324.2727272727272,171.24242424242428)"><g><g><rect fill="rgb(77,175,74)" fill-opacity="0.75" height="6.0" rx="3.0" ry="3.0" stroke="none" width="6.0" x="0" y="0" /></g></g></g><g data-row-idx="137" transform="translate(337.90909090909093,209.87878787878788)"><g><g><rect fill="rgb(77,175,74)" fill-opacity="0.75" height="6.0" rx="3.0" ry="3.0" stroke="none" width="6.0" x="0" y="0" /></g></g></g><g data-row-idx="138" transform="translate(283.3636363636364,222.75757575757578)"><g><g><rect fill="rgb(77,175,74)" fill-opacity="0.75" height="6.0" rx="3.0" ry="3.0" stroke="none" width="6.0" x="0" y="0" /></g></g></g><g data-row-idx="139" transform="translate(406.0909090909091,209.87878787878788)"><g><g><rect fill="rgb(77,175,74)" fill-opacity="0.75" height="6.0" rx="3.0" ry="3.0" stroke="none" width="6.0" x="0" y="0" /></g></g></g><g data-row-idx="140" transform="translate(378.8181818181818,209.87878787878788)"><g><g><rect fill="rgb(77,175,74)" fill-opacity="0.75" height="6.0" rx="3.0" ry="3.0" stroke="none" width="6.0" x="0" y="0" /></g></g></g><g data-row-idx="141" transform="translate(406.0909090909091,209.87878787878788)"><g><g><rect fill="rgb(77,175,74)" fill-opacity="0.75" height="6.0" rx="3.0" ry="3.0" stroke="none" width="6.0" x="0" y="0" /></g></g></g><g data-row-idx="142" transform="translate(256.09090909090907,261.3939393939394)"><g><g><rect fill="rgb(77,175,74)" fill-opacity="0.75" height="6.0" rx="3.0" ry="3.0" stroke="none" width="6.0" x="0" y="0" /></g></g></g><g data-row-idx="143" transform="translate(392.4545454545454,197.0)"><g><g><rect fill="rgb(77,175,74)" fill-opacity="0.75" height="6.0" rx="3.0" ry="3.0" stroke="none" width="6.0" x="0" y="0" /></g></g></g><g data-row-idx="144" transform="translate(378.8181818181818,184.12121212121218)"><g><g><rect fill="rgb(77,175,74)" fill-opacity="0.75" height="6.0" rx="3.0" ry="3.0" stroke="none" width="6.0" x="0" y="0" /></g></g></g><g data-row-idx="145" transform="translate(378.8181818181818,222.75757575757578)"><g><g><rect fill="rgb(77,175,74)" fill-opacity="0.75" height="6.0" rx="3.0" ry="3.0" stroke="none" width="6.0" x="0" y="0" /></g></g></g><g data-row-idx="146" transform="translate(324.2727272727272,287.1515151515151)"><g><g><rect fill="rgb(77,175,74)" fill-opacity="0.75" height="6.0" rx="3.0" ry="3.0" stroke="none" width="6.0" x="0" y="0" /></g></g></g><g data-row-idx="147" transform="translate(351.54545454545456,222.75757575757578)"><g><g><rect fill="rgb(77,175,74)" fill-opacity="0.75" height="6.0" rx="3.0" ry="3.0" stroke="none" width="6.0" x="0" y="0" /></g></g></g><g data-row-idx="148" transform="translate(310.6363636363637,171.24242424242428)"><g><g><rect fill="rgb(77,175,74)" fill-opacity="0.75" height="6.0" rx="3.0" ry="3.0" stroke="none" width="6.0" x="0" y="0" /></g></g></g><g data-row-idx="149" transform="translate(269.72727272727275,222.75757575757578)"><g><g><rect fill="rgb(77,175,74)" fill-opacity="0.75" height="6.0" rx="3.0" ry="3.0" stroke="none" width="6.0" x="0" y="0" /></g></g></g><g><g><g><polyline fill="none" points="54.545454545454504,243.24194442702336 259.09090909090907,88.98079543836911" stroke="rgb(228,26,28)" stroke-opacity="1.0" stroke-width="2.5" /></g></g></g><g><g><g><polyline fill="none" points="136.3636363636364,298.03709934692233 422.72727272727275,211.56754907367701" stroke="rgb(55,126,184)" stroke-opacity="1.0" stroke-width="2.5" /></g></g></g><g><g><g><polyline fill="none" points="136.3636363636364,279.51764882940654 545.4545454545455,189.9235939300945" stroke="rgb(77,175,74)" stroke-opacity="1.0" stroke-width="2.5" /></g></g></g><g transform="translate(72.38961038961038,388.0)"><g><text dominant-baseline="hanging" fill="rgb(102,102,102)" fill-opacity="1.0" font-size="11">4.5</text></g></g><g transform="translate(140.57142857142858,388.0)"><g><text dominant-baseline="hanging" fill="rgb(102,102,102)" fill-opacity="1.0" font-size="11">5.0</text></g></g><g transform="translate(208.75324675324674,388.0)"><g><text dominant-baseline="hanging" fill="rgb(102,102,102)" fill-opacity="1.0" font-size="11">5.5</text></g></g><g transform="translate(276.93506493506493,388.0)"><g><text dominant-baseline="hanging" fill="rgb(102,102,102)" fill-opacity="1.0" font-size="11">6.0</text></g></g><g transform="translate(345.1168831168831,388.0)"><g><text dominant-baseline="hanging" fill="rgb(102,102,102)" fill-opacity="1.0" font-size="11">6.5</text></g></g><g transform="translate(413.2987012987013,388.0)"><g><text dominant-baseline="hanging" fill="rgb(102,102,102)" fill-opacity="1.0" font-size="11">7.0</text></g></g><g transform="translate(481.48051948051943,388.0)"><g><text dominant-baseline="hanging" fill="rgb(102,102,102)" fill-opacity="1.0" font-size="11">7.5</text></g></g><g transform="translate(549.6623376623377,388.0)"><g><text dominant-baseline="hanging" fill="rgb(102,102,102)" fill-opacity="1.0" font-size="11">8.0</text></g></g><g transform="translate(10.5,349.04545454545456)"><g><text dominant-baseline="hanging" fill="rgb(102,102,102)" fill-opacity="1.0" font-size="11">2.0</text></g></g><g transform="translate(10.5,284.6515151515151)"><g><text dominant-baseline="hanging" fill="rgb(102,102,102)" fill-opacity="1.0" font-size="11">2.5</text></g></g><g transform="translate(10.5,220.25757575757578)"><g><text dominant-baseline="hanging" fill="rgb(102,102,102)" fill-opacity="1.0" font-size="11">3.0</text></g></g><g transform="translate(10.5,155.8636363636364)"><g><text dominant-baseline="hanging" fill="rgb(102,102,102)" fill-opacity="1.0" font-size="11">3.5</text></g></g><g transform="translate(10.5,91.469696969697)"><g><text dominant-baseline="hanging" fill="rgb(102,102,102)" fill-opacity="1.0" font-size="11">4.0</text></g></g><g transform="translate(10.5,27.07575757575762)"><g><text dominant-baseline="hanging" fill="rgb(102,102,102)" fill-opacity="1.0" font-size="11">4.5</text></g></g></g></g></g></svg>