<svg aria-label="Sepal length vs width by species" font-family="system-ui, -apple-system, BlinkMacSystemFont, &apos;Segoe UI&apos;, sans-serif" height="420.0" role="img" viewBox="0 0 700.0 420.0" width="700.0" xmlns="http://www.w3.org/2000/svg"><g><g transform="translate(320.25,14.00)"><g><text dominant-baseline="hanging" fill="rgb(51,51,51)" fill-opacity="1.0" font-size="15" text-anchor="middle">Sepal length vs width by species</text></g></g><g transform="translate(12.00,207.50)"><g transform="rotate(-90.00)"><g><text dominant-baseline="hanging" fill="rgb(51,51,51)" fill-opacity="1.0" font-size="13" text-anchor="middle">sepal width</text></g></g></g><g transform="translate(320.25,402.00)"><g><text dominant-baseline="hanging" fill="rgb(51,51,51)" fill-opacity="1.0" font-size="13" text-anchor="middle">sepal length</text></g></g><g transform="translate(608.00,35.00)"><g><text dominant-baseline="hanging" fill="rgb(51,51,51)" fill-opacity="1.0" font-size="11">species</text></g></g><g transform="translate(608.00,53.00)"><g><g transform="translate(0.00,0.00)"><g><g><rect fill="rgb(228,26,28)" fill-opacity="1.0" height="8" rx="4.0" ry="4.0" stroke="none" width="8" x="0" y="0" /></g></g></g><g transform="translate(12.00,0.00)"><g><text dominant-baseline="hanging" fill="rgb(51,51,51)" fill-opacity="1.0" font-size="10">setosa</text></g></g></g></g><g transform="translate(608.00,69.00)"><g><g transform="translate(0.00,0.00)"><g><g><rect fill="rgb(55,126,184)" fill-opacity="1.0" height="8" rx="4.0" ry="4.0" stroke="none" width="8" x="0" y="0" /></g></g></g><g transform="translate(12.00,0.00)"><g><text dominant-baseline="hanging" fill="rgb(51,51,51)" fill-opacity="1.0" font-size="10">versicolor</text></g></g></g></g><g transform="translate(608.00,85.00)"><g><g transform="translate(0.00,0.00)"><g><g><rect fill="rgb(77,175,74)" fill-opacity="1.0" height="8" rx="4.0" ry="4.0" stroke="none" width="8" x="0" y="0" /></g></g></g><g transform="translate(12.00,0.00)"><g><text dominant-baseline="hanging" fill="rgb(51,51,51)" fill-opacity="1.0" font-size="10">virginica</text></g></g></g></g><g transform="translate(52.50,43.00)"><g><g><rect fill="rgb(232,232,232)" fill-opacity="1.0" height="329.0" stroke="none" width="535.5" x="0" y="0" /></g></g></g><g transform="translate(42.50,33.00)"><g><g><g><g><polyline fill="none" points="61.39,10.00 61.39,339.00" stroke="rgb(245,245,245)" stroke-opacity="1.0" stroke-width="0.6" /></g></g></g><g><g><g><polyline fill="none" points="129.00,10.00 129.00,339.00" stroke="rgb(245,245,245)" stroke-opacity="1.0" stroke-width="0.6" /></g></g></g><g><g><g><polyline fill="none" points="196.61,10.00 196.61,339.00" stroke="rgb(245,245,245)" stroke-opacity="1.0" stroke-width="0.6" /></g></g></g><g><g><g><polyline fill="none" points="264.23,10.00 264.23,339.00" stroke="rgb(245,245,245)" stroke-opacity="1.0" stroke-width="0.6" /></g></g></g><g><g><g><polyline fill="none" points="331.84,10.00 331.84,339.00" stroke="rgb(245,245,245)" stroke-opacity="1.0" stroke-width="0.6" /></g></g></g><g><g><g><polyline fill="none" points="399.45,10.00 399.45,339.00" stroke="rgb(245,245,245)" stroke-opacity="1.0" stroke-width="0.6" /></g></g></g><g><g><g><polyline fill="none" points="467.07,10.00 467.07,339.00" stroke="rgb(245,245,245)" stroke-opacity="1.0" stroke-width="0.6" /></g></g></g><g><g><g><polyline fill="none" points="534.68,10.00 534.68,339.00" stroke="rgb(245,245,245)" stroke-opacity="1.0" stroke-width="0.6" /></g></g></g><g><g><g><polyline fill="none" points="10.00,324.05 545.50,324.05" stroke="rgb(245,245,245)" stroke-opacity="1.0" stroke-width="0.6" /></g></g></g><g><g><g><polyline fill="none" points="10.00,261.73 545.50,261.73" stroke="rgb(245,245,245)" stroke-opacity="1.0" stroke-width="0.6" /></g></g></g><g><g><g><polyline fill="none" points="10.00,199.42 545.50,199.42" stroke="rgb(245,245,245)" stroke-opacity="1.0" stroke-width="0.6" /></g></g></g><g><g><g><polyline fill="none" points="10.00,137.11 545.50,137.11" stroke="rgb(245,245,245)" stroke-opacity="1.0" stroke-width="0.6" /></g></g></g><g><g><g><polyline fill="none" points="10.00,74.80 545.50,74.80" stroke="rgb(245,245,245)" stroke-opacity="1.0" stroke-width="0.6" /></g></g></g><g><g><g><polyline fill="none" points="10.00,12.49 545.50,12.49" stroke="rgb(245,245,245)" stroke-opacity="1.0" stroke-width="0.6" /></g></g></g><g data-row-idx="0" transform="translate(139.52,134.11)"><g><g><rect fill="rgb(228,26,28)" fill-opacity="0.75" height="6.0" rx="3.0" ry="3.0" stroke="none" width="6.0" x="0" y="0" /></g></g></g><g data-row-idx="1" transform="translate(112.48,196.42)"><g><g><rect fill="rgb(228,26,28)" fill-opacity="0.75" height="6.0" rx="3.0" ry="3.0" stroke="none" width="6.0" x="0" y="0" /></g></g></g><g data-row-idx="2" transform="translate(85.43,171.50)"><g><g><rect fill="rgb(228,26,28)" fill-opacity="0.75" height="6.0" rx="3.0" ry="3.0" stroke="none" width="6.0" x="0" y="0" /></g></g></g><g data-row-idx="3" transform="translate(71.91,183.96)"><g><g><rect fill="rgb(228,26,28)" fill-opacity="0.75" height="6.0" rx="3.0" ry="3.0" stroke="none" width="6.0" x="0" y="0" /></g></g></g><g data-row-idx="4" transform="translate(126.00,121.65)"><g><g><rect fill="rgb(228,26,28)" fill-opacity="0.75" height="6.0" rx="3.0" ry="3.0" stroke="none" width="6.0" x="0" y="0" /></g></g></g><g data-row-idx="5" transform="translate(180.09,84.27)"><g><g><rect fill="rgb(228,26,28)" fill-opacity="0.75" height="6.0" rx="3.0" ry="3.0" stroke="none" width="6.0" x="0" y="0" /></g></g></g><g data-row-idx="6" transform="translate(71.91,146.58)"><g><g><rect fill="rgb(228,26,28)" fill-opacity="0.75" height="6.0" rx="3.0" ry="3.0" stroke="none" width="6.0" x="0" y="0" /></g></g></g><g data-row-idx="7" transform="translate(126.00,146.58)"><g><g><rect fill="rgb(228,26,28)" fill-opacity="0.75" height="6.0" rx="3.0" ry="3.0" stroke="none" width="6.0" x="0" y="0" /></g></g></g><g data-row-idx="8" transform="translate(44.86,208.89)"><g><g><rect fill="rgb(228,26,28)" fill-opacity="0.75" height="6.0" rx="3.0" ry="3.0" stroke="none" width="6.0" x="0" y="0" /></g></g></g><g data-row-idx="9" transform="translate(112.48,183.96)"><g><g><rect fill="rgb(228,26,28)" fill-opacity="0.75" height="6.0" rx="3.0" ry="3.0" stroke="none" width="6.0" x="0" y="0" /></g></g></g><g data-row-idx="10" transform="translate(180.09,109.19)"><g><g><rect fill="rgb(228,26,28)" fill-opacity="0.75" height="6.0" rx="3.0" ry="3.0" stroke="none" width="6.0" x="0" y="0" /></g></g></g><g data-row-idx="11" transform="translate(98.95,146.58)"><g><g><rect fill="rgb(228,26,28)" fill-opacity="0.75" height="6.0" rx="3.0" ry="3.0" stroke="none" width="6.0" x="0" y="0" /></g></g></g><g data-row-idx="12" transform="translate(98.95,196.42)"><g><g><rect fill="rgb(228,26,28)" fill-opacity="0.75" height="6.0" rx="3.0" ry="3.0" stroke="none" width="6.0" x="0" y="0" /></g></g></g><g data-row-idx="13" transform="translate(31.34,196.42)"><g><g><rect fill="rgb(228,26,28)" fill-opacity="0.75" height="6.0" rx="3.0" ry="3.0" stroke="none" width="6.0" x="0" y="0" /></g></g></g><g data-row-idx="14" transform="translate(234.18,71.80)"><g><g><rect fill="rgb(228,26,28)" fill-opacity="0.75" height="6.0" rx="3.0" ry="3.0" stroke="none" width="6.0" x="0" y="0" /></g></g></g><g data-row-idx="15" transform="translate(220.66,21.95)"><g><g><rect fill="rgb(228,26,28)" fill-opacity="0.75" height="6.0" rx="3.0" ry="3.0" stroke="none" width="6.0" x="0" y="0" /></g></g></g><g data-row-idx="16" transform="translate(180.09,84.27)"><g><g><rect fill="rgb(228,26,28)" fill-opacity="0.75" height="6.0" rx="3.0" ry="3.0" stroke="none" width="6.0" x="0" y="0" /></g></g></g><g data-row-idx="17" transform="translate(139.52,134.11)"><g><g><rect fill="rgb(228,26,28)" fill-opacity="0.75" height="6.0" rx="3.0" ry="3.0" stroke="none" width="6.0" x="0" y="0" /></g></g></g><g data-row-idx="18" transform="translate(220.66,96.73)"><g><g><rect fill="rgb(228,26,28)" fill-opacity="0.75" height="6.0" rx="3.0" ry="3.0" stroke="none" width="6.0" x="0" y="0" /></g></g></g><g data-row-idx="19" transform="translate(139.52,96.73)"><g><g><rect fill="rgb(228,26,28)" fill-opacity="0.75" height="6.0" rx="3.0" ry="3.0" stroke="none" width="6.0" x="0" y="0" /></g></g></g><g data-row-idx="20" transform="translate(180.09,146.58)"><g><g><rect fill="rgb(228,26,28)" fill-opacity="0.75" height="6.0" rx="3.0" ry="3.0" stroke="none" width="6.0" x="0" y="0" /></g></g></g><g data-row-idx="21" transform="translate(139.52,109.19)"><g><g><rect fill="rgb(228,26,28)" fill-opacity="0.75" height="6.0" rx="3.0" ry="3.0" stroke="none" width="6.0" x="0" y="0" /></g></g></g><g data-row-idx="22" transform="translate(71.91,121.65)"><g><g><rect fill="rgb(228,26,28)" fill-opacity="0.75" height="6.0" rx="3.0" ry="3.0" stroke="none" width="6.0" x="0" y="0" /></g></g></g><g data-row-idx="23" transform="translate(139.52,159.04)"><g><g><rect fill="rgb(228,26,28)" fill-opacity="0.75" height="6.0" rx="3.0" ry="3.0" stroke="none" width="6.0" x="0" y="0" /></g></g></g><g data-row-idx="24" transform="translate(98.95,146.58)"><g><g><rect fill="rgb(228,26,28)" fill-opacity="0.75" height="6.0" rx="3.0" ry="3.0" stroke="none" width="6.0" x="0" y="0" /></g></g></g><g data-row-idx="25" transform="translate(126.00,196.42)"><g><g><rect fill="rgb(228,26,28)" fill-opacity="0.75" height="6.0" rx="3.0" ry="3.0" stroke="none" width="6.0" x="0" y="0" /></g></g></g><g data-row-idx="26" transform="translate(126.00,146.58)"><g><g><rect fill="rgb(228,26,28)" fill-opacity="0.75" height="6.0" rx="3.0" ry="3.0" stroke="none" width="6.0" x="0" y="0" /></g></g></g><g data-row-idx="27" transform="translate(153.05,134.11)"><g><g><rect fill="rgb(228,26,28)" fill-opacity="0.75" height="6.0" rx="3.0" ry="3.0" stroke="none" width="6.0" x="0" y="0" /></g></g></g><g data-row-idx="28" transform="translate(153.05,146.58)"><g><g><rect fill="rgb(228,26,28)" fill-opacity="0.75" height="6.0" rx="3.0" ry="3.0" stroke="none" width="6.0" x="0" y="0" /></g></g></g><g data-row-idx="29" transform="translate(85.43,171.50)"><g><g><rect fill="rgb(228,26,28)" fill-opacity="0.75" height="6.0" rx="3.0" ry="3.0" stroke="none" width="6.0" x="0" y="0" /></g></g></g><g data-row-idx="30" transform="translate(98.95,183.96)"><g><g><rect fill="rgb(228,26,28)" fill-opacity="0.75" height="6.0" rx="3.0" ry="3.0" stroke="none" width="6.0" x="0" y="0" /></g></g></g><g data-row-idx="31" transform="translate(180.09,146.58)"><g><g><rect fill="rgb(228,26,28)" fill-opacity="0.75" height="6.0" rx="3.0" ry="3.0" stroke="none" width="6.0" x="0" y="0" /></g></g></g><g data-row-idx="32" transform="translate(153.05,59.34)"><g><g><rect fill="rgb(228,26,28)" fill-opacity="0.75" height="6.0" rx="3.0" ry="3.0" stroke="none" width="6.0" x="0" y="0" /></g></g></g><g data-row-idx="33" transform="translate(193.61,46.88)"><g><g><rect fill="rgb(228,26,28)" fill-opacity="0.75" height="6.0" rx="3.0" ry="3.0" stroke="none" width="6.0" x="0" y="0" /></g></g></g><g data-row-idx="34" transform="translate(112.48,183.96)"><g><g><rect fill="rgb(228,26,28)" fill-opacity="0.75" height="6.0" rx="3.0" ry="3.0" stroke="none" width="6.0" x="0" y="0" /></g></g></g><g data-row-idx="35" transform="translate(126.00,171.50)"><g><g><rect fill="rgb(228,26,28)" fill-opacity="0.75" height="6.0" rx="3.0" ry="3.0" stroke="none" width="6.0" x="0" y="0" /></g></g></g><g data-row-idx="36" transform="translate(193.61,134.11)"><g><g><rect fill="rgb(228,26,28)" fill-opacity="0.75" height="6.0" rx="3.0" ry="3.0" stroke="none" width="6.0" x="0" y="0" /></g></g></g><g data-row-idx="37" transform="translate(112.48,121.65)"><g><g><rect fill="rgb(228,26,28)" fill-opacity="0.75" height="6.0" rx="3.0" ry="3.0" stroke="none" width="6.0" x="0" y="0" /></g></g></g><g data-row-idx="38" transform="translate(44.86,196.42)"><g><g><rect fill="rgb(228,26,28)" fill-opacity="0.75" height="6.0" rx="3.0" ry="3.0" stroke="none" width="6.0" x="0" y="0" /></g></g></g><g data-row-idx="39" transform="translate(139.52,146.58)"><g><g><rect fill="rgb(228,26,28)" fill-opacity="0.75" height="6.0" rx="3.0" ry="3.0" stroke="none" width="6.0" x="0" y="0" /></g></g></g><g data-row-idx="40" transform="translate(126.00,134.11)"><g><g><rect fill="rgb(228,26,28)" fill-opacity="0.75" height="6.0" rx="3.0" ry="3.0" stroke="none" width="6.0" x="0" y="0" /></g></g></g><g data-row-idx="41" transform="translate(58.39,283.66)"><g><g><rect fill="rgb(228,26,28)" fill-opacity="0.75" height="6.0" rx="3.0" ry="3.0" stroke="none" width="6.0" x="0" y="0" /></g></g></g><g data-row-idx="42" transform="translate(44.86,171.50)"><g><g><rect fill="rgb(228,26,28)" fill-opacity="0.75" height="6.0" rx="3.0" ry="3.0" stroke="none" width="6.0" x="0" y="0" /></g></g></g><g data-row-idx="43" transform="translate(126.00,134.11)"><g><g><rect fill="rgb(228,26,28)" fill-opacity="0.75" height="6.0" rx="3.0" ry="3.0" stroke="none" width="6.0" x="0" y="0" /></g></g></g><g data-row-idx="44" transform="translate(139.52,96.73)"><g><g><rect fill="rgb(228,26,28)" fill-opacity="0.75" height="6.0" rx="3.0" ry="3.0" stroke="none" width="6.0" x="0" y="0" /></g></g></g><g data-row-idx="45" transform="translate(98.95,196.42)"><g><g><rect fill="rgb(228,26,28)" fill-opacity="0.75" height="6.0" rx="3.0" ry="3.0" stroke="none" width="6.0" x="0" y="0" /></g></g></g><g data-row-idx="46" transform="translate(139.52,96.73)"><g><g><rect fill="rgb(228,26,28)" fill-opacity="0.75" height="6.0" rx="3.0" ry="3.0" stroke="none" width="6.0" x="0" y="0" /></g></g></g><g data-row-idx="47" transform="translate(71.91,171.50)"><g><g><rect fill="rgb(228,26,28)" fill-opacity="0.75" height="6.0" rx="3.0" ry="3.0" stroke="none" width="6.0" x="0" y="0" /></g></g></g><g data-row-idx="48" transform="translate(166.57,109.19)"><g><g><rect fill="rgb(228,26,28)" fill-opacity="0.75" height="6.0" rx="3.0" ry="3.0" stroke="none" width="6.0" x="0" y="0" /></g></g></g><g data-row-idx="49" transform="translate(126.00,159.04)"><g><g><rect fill="rgb(228,26,28)" fill-opacity="0.75" height="6.0" rx="3.0" ry="3.0" stroke="none" width="6.0" x="0" y="0" /></g></g></g><g data-row-idx="50" transform="translate(396.45,171.50)"><g><g><rect fill="rgb(55,126,184)" fill-opacity="0.75" height="6.0" rx="3.0" ry="3.0" stroke="none" width="6.0" x="0" y="0" /></g></g></g><g data-row-idx="51" transform="translate(315.32,171.50)"><g><g><rect fill="rgb(55,126,184)" fill-opacity="0.75" height="6.0" rx="3.0" ry="3.0" stroke="none" width="6.0" x="0" y="0" /></g></g></g><g data-row-idx="52" transform="translate(382.93,183.96)"><g><g><rect fill="rgb(55,126,184)" fill-opacity="0.75" height="6.0" rx="3.0" ry="3.0" stroke="none" width="6.0" x="0" y="0" /></g></g></g><g data-row-idx="53" transform="translate(193.61,283.66)"><g><g><rect fill="rgb(55,126,184)" fill-opacity="0.75" height="6.0" rx="3.0" ry="3.0" stroke="none" width="6.0" x="0" y="0" /></g></g></g><g data-row-idx="54" transform="translate(328.84,221.35)"><g><g><rect fill="rgb(55,126,184)" fill-opacity="0.75" height="6.0" rx="3.0" ry="3.0" stroke="none" width="6.0" x="0" y="0" /></g></g></g><g data-row-idx="55" transform="translate(220.66,221.35)"><g><g><rect fill="rgb(55,126,184)" fill-opacity="0.75" height="6.0" rx="3.0" ry="3.0" stroke="none" width="6.0" x="0" y="0" /></g></g></g><g data-row-idx="56" transform="translate(301.80,159.04)"><g><g><rect fill="rgb(55,126,184)" fill-opacity="0.75" height="6.0" rx="3.0" ry="3.0" stroke="none" width="6.0" x="0" y="0" /></g></g></g><g data-row-idx="57" transform="translate(112.48,271.20)"><g><g><rect fill="rgb(55,126,184)" fill-opacity="0.75" height="6.0" rx="3.0" ry="3.0" stroke="none" width="6.0" x="0" y="0" /></g></g></g><g data-row-idx="58" transform="translate(342.36,208.89)"><g><g><rect fill="rgb(55,126,184)" fill-opacity="0.75" height="6.0" rx="3.0" ry="3.0" stroke="none" width="6.0" x="0" y="0" /></g></g></g><g data-row-idx="59" transform="translate(153.05,233.81)"><g><g><rect fill="rgb(55,126,184)" fill-opacity="0.75" height="6.0" rx="3.0" ry="3.0" stroke="none" width="6.0" x="0" y="0" /></g></g></g><g data-row-idx="60" transform="translate(126.00,321.05)"><g><g><rect fill="rgb(55,126,184)" fill-opacity="0.75" height="6.0" rx="3.0" ry="3.0" stroke="none" width="6.0" x="0" y="0" /></g></g></g><g data-row-idx="61" transform="translate(247.70,196.42)"><g><g><rect fill="rgb(55,126,184)" fill-opacity="0.75" height="6.0" rx="3.0" ry="3.0" stroke="none" width="6.0" x="0" y="0" /></g></g></g><g data-row-idx="62" transform="translate(261.23,296.12)"><g><g><rect fill="rgb(55,126,184)" fill-opacity="0.75" height="6.0" rx="3.0" ry="3.0" stroke="none" width="6.0" x="0" y="0" /></g></g></g><g data-row-idx="63" transform="translate(274.75,208.89)"><g><g><rect fill="rgb(55,126,184)" fill-opacity="0.75" height="6.0" rx="3.0" ry="3.0" stroke="none" width="6.0" x="0" y="0" /></g></g></g><g data-row-idx="64" transform="translate(207.14,208.89)"><g><g><rect fill="rgb(55,126,184)" fill-opacity="0.75" height="6.0" rx="3.0" ry="3.0" stroke="none" width="6.0" x="0" y="0" /></g></g></g><g data-row-idx="65" transform="translate(355.89,183.96)"><g><g><rect fill="rgb(55,126,184)" fill-opacity="0.75" height="6.0" rx="3.0" ry="3.0" stroke="none" width="6.0" x="0" y="0" /></g></g></g><g data-row-idx="66" transform="translate(207.14,196.42)"><g><g><rect fill="rgb(55,126,184)" fill-opacity="0.75" height="6.0" rx="3.0" ry="3.0" stroke="none" width="6.0" x="0" y="0" /></g></g></g><g data-row-idx="67" transform="translate(234.18,233.81)"><g><g><rect fill="rgb(55,126,184)" fill-opacity="0.75" height="6.0" rx="3.0" ry="3.0" stroke="none" width="6.0" x="0" y="0" /></g></g></g><g data-row-idx="68" transform="translate(288.27,296.12)"><g><g><rect fill="rgb(55,126,184)" fill-opacity="0.75" height="6.0" rx="3.0" ry="3.0" stroke="none" width="6.0" x="0" y="0" /></g></g></g><g data-row-idx="69" transform="translate(207.14,258.73)"><g><g><rect fill="rgb(55,126,184)" fill-opacity="0.75" height="6.0" rx="3.0" ry="3.0" stroke="none" width="6.0" x="0" y="0" /></g></g></g><g data-row-idx="70" transform="translate(247.70,171.50)"><g><g><rect fill="rgb(55,126,184)" fill-opacity="0.75" height="6.0" rx="3.0" ry="3.0" stroke="none" width="6.0" x="0" y="0" /></g></g></g><g data-row-idx="71" transform="translate(274.75,221.35)"><g><g><rect fill="rgb(55,126,184)" fill-opacity="0.75" height="6.0" rx="3.0" ry="3.0" stroke="none" width="6.0" x="0" y="0" /></g></g></g><g data-row-idx="72" transform="translate(301.80,258.73)"><g><g><rect fill="rgb(55,126,184)" fill-opacity="0.75" height="6.0" rx="3.0" ry="3.0" stroke="none" width="6.0" x="0" y="0" /></g></g></g><g data-row-idx="73" transform="translate(274.75,221.35)"><g><g><rect fill="rgb(55,126,184)" fill-opacity="0.75" height="6.0" rx="3.0" ry="3.0" stroke="none" width="6.0" x="0" y="0" /></g></g></g><g data-row-idx="74" transform="translate(315.32,208.89)"><g><g><rect fill="rgb(55,126,184)" fill-opacity="0.75" height="6.0" rx="3.0" ry="3.0" stroke="none" width="6.0" x="0" y="0" /></g></g></g><g data-row-idx="75" transform="translate(342.36,196.42)"><g><g><rect fill="rgb(55,126,184)" fill-opacity="0.75" height="6.0" rx="3.0" ry="3.0" stroke="none" width="6.0" x="0" y="0" /></g></g></g><g data-row-idx="76" transform="translate(369.41,221.35)"><g><g><rect fill="rgb(55,126,184)" fill-opacity="0.75" height="6.0" rx="3.0" ry="3.0" stroke="none" width="6.0" x="0" y="0" /></g></g></g><g data-row-idx="77" transform="translate(355.89,196.42)"><g><g><rect fill="rgb(55,126,184)" fill-opacity="0.75" height="6.0" rx="3.0" ry="3.0" stroke="none" width="6.0" x="0" y="0" /></g></g></g><g data-row-idx="78" transform="translate(261.23,208.89)"><g><g><rect fill="rgb(55,126,184)" fill-opacity="0.75" height="6.0" rx="3.0" ry="3.0" stroke="none" width="6.0" x="0" y="0" /></g></g></g><g data-row-idx="79" transform="translate(220.66,246.27)"><g><g><rect fill="rgb(55,126,184)" fill-opacity="0.75" height="6.0" rx="3.0" ry="3.0" stroke="none" width="6.0" x="0" y="0" /></g></g></g><g data-row-idx="80" transform="translate(193.61,271.20)"><g><g><rect fill="rgb(55,126,184)" fill-opacity="0.75" height="6.0" rx="3.0" ry="3.0" stroke="none" width="6.0" x="0" y="0" /></g></g></g><g data-row-idx="81" transform="translate(193.61,271.20)"><g><g><rect fill="rgb(55,126,184)" fill-opacity="0.75" height="6.0" rx="3.0" ry="3.0" stroke="none" width="6.0" x="0" y="0" /></g></g></g><g data-row-idx="82" transform="translate(234.18,233.81)"><g><g><rect fill="rgb(55,126,184)" fill-opacity="0.75" height="6.0" rx="3.0" ry="3.0" stroke="none" width="6.0" x="0" y="0" /></g></g></g><g data-row-idx="83" transform="translate(261.23,233.81)"><g><g><rect fill="rgb(55,126,184)" fill-opacity="0.75" height="6.0" rx="3.0" ry="3.0" stroke="none" width="6.0" x="0" y="0" /></g></g></g><g data-row-idx="84" transform="translate(180.09,196.42)"><g><g><rect fill="rgb(55,126,184)" fill-opacity="0.75" height="6.0" rx="3.0" ry="3.0" stroke="none" width="6.0" x="0" y="0" /></g></g></g><g data-row-idx="85" transform="translate(261.23,146.58)"><g><g><rect fill="rgb(55,126,184)" fill-opacity="0.75" height="6.0" rx="3.0" ry="3.0" stroke="none" width="6.0" x="0" y="0" /></g></g></g><g data-row-idx="86" transform="translate(355.89,183.96)"><g><g><rect fill="rgb(55,126,184)" fill-opacity="0.75" height="6.0" rx="3.0" ry="3.0" stroke="none" width="6.0" x="0" y="0" /></g></g></g><g data-row-idx="87" transform="translate(301.80,283.66)"><g><g><rect fill="rgb(55,126,184)" fill-opacity="0.75" height="6.0" rx="3.0" ry="3.0" stroke="none" width="6.0" x="0" y="0" /></g></g></g><g data-row-idx="88" transform="translate(207.14,196.42)"><g><g><rect fill="rgb(55,126,184)" fill-opacity="0.75" height="6.0" rx="3.0" ry="3.0" stroke="none" width="6.0" x="0" y="0" /></g></g></g><g data-row-idx="89" transform="translate(193.61,258.73)"><g><g><rect fill="rgb(55,126,184)" fill-opacity="0.75" height="6.0" rx="3.0" ry="3.0" stroke="none" width="6.0" x="0" y="0" /></g></g></g><g data-row-idx="90" transform="translate(193.61,246.27)"><g><g><rect fill="rgb(55,126,184)" fill-opacity="0.75" height="6.0" rx="3.0" ry="3.0" stroke="none" width="6.0" x="0" y="0" /></g></g></g><g data-row-idx="91" transform="translate(274.75,196.42)"><g><g><rect fill="rgb(55,126,184)" fill-opacity="0.75" height="6.0" rx="3.0" ry="3.0" stroke="none" width="6.0" x="0" y="0" /></g></g></g><g data-row-idx="92" transform="translate(234.18,246.27)"><g><g><rect fill="rgb(55,126,184)" fill-opacity="0.75" height="6.0" rx="3.0" ry="3.0" stroke="none" width="6.0" x="0" y="0" /></g></g></g><g data-row-idx="93" transform="translate(126.00,283.66)"><g><g><rect fill="rgb(55,126,184)" fill-opacity="0.75" height="6.0" rx="3.0" ry="3.0" stroke="none" width="6.0" x="0" y="0" /></g></g></g><g data-row-idx="94" transform="translate(207.14,233.81)"><g><g><rect fill="rgb(55,126,184)" fill-opacity="0.75" height="6.0" rx="3.0" ry="3.0" stroke="none" width="6.0" x="0" y="0" /></g></g></g><g data-row-idx="95" transform="translate(220.66,196.42)"><g><g><rect fill="rgb(55,126,184)" fill-opacity="0.75" height="6.0" rx="3.0" ry="3.0" stroke="none" width="6.0" x="0" y="0" /></g></g></g><g data-row-idx="96" transform="translate(220.66,208.89)"><g><g><rect fill="rgb(55,126,184)" fill-opacity="0.75" height="6.0" rx="3.0" ry="3.0" stroke="none" width="6.0" x="0" y="0" /></g></g></g><g data-row-idx="97" transform="translate(288.27,208.89)"><g><g><rect fill="rgb(55,126,184)" fill-opacity="0.75" height="6.0" rx="3.0" ry="3.0" stroke="none" width="6.0" x="0" y="0" /></g></g></g><g data-row-idx="98" transform="translate(139.52,258.73)"><g><g><rect fill="rgb(55,126,184)" fill-opacity="0.75" height="6.0" rx="3.0" ry="3.0" stroke="none" width="6.0" x="0" y="0" /></g></g></g><g data-row-idx="99" transform="translate(220.66,221.35)"><g><g><rect fill="rgb(55,126,184)" fill-opacity="0.75" height="6.0" rx="3.0" ry="3.0" stroke="none" width="6.0" x="0" y="0" /></g></g></g><g data-row-idx="100" transform="translate(301.80,159.04)"><g><g><rect fill="rgb(77,175,74)" fill-opacity="0.75" height="6.0" rx="3.0" ry="3.0" stroke="none" width="6.0" x="0" y="0" /></g></g></g><g data-row-idx="101" transform="translate(234.18,233.81)"><g><g><rect fill="rgb(77,175,74)" fill-opacity="0.75" height="6.0" rx="3.0" ry="3.0" stroke="none" width="6.0" x="0" y="0" /></g></g></g><g data-row-idx="102" transform="translate(409.98,196.42)"><g><g><rect fill="rgb(77,175,74)" fill-opacity="0.75" height="6.0" rx="3.0" ry="3.0" stroke="none" width="6.0" x="0" y="0" /></g></g></g><g data-row-idx="103" transform="translate(301.80,208.89)"><g><g><rect fill="rgb(77,175,74)" fill-opacity="0.75" height="6.0" rx="3.0" ry="3.0" stroke="none" width="6.0" x="0" y="0" /></g></g></g><g data-row-idx="104" transform="translate(328.84,196.42)"><g><g><rect fill="rgb(77,175,74)" fill-opacity="0.75" height="6.0" rx="3.0" ry="3.0" stroke="none" width="6.0" x="0" y="0" /></g></g></g><g data-row-idx="105" transform="translate(477.59,196.42)"><g><g><rect fill="rgb(77,175,74)" fill-opacity="0.75" height="6.0" rx="3.0" ry="3.0" stroke="none" width="6.0" x="0" y="0" /></g></g></g><g data-row-idx="106" transform="translate(112.48,258.73)"><g><g><rect fill="rgb(77,175,74)" fill-opacity="0.75" height="6.0" rx="3.0" ry="3.0" stroke="none" width="6.0" x="0" y="0" /></g></g></g><g data-row-idx="107" transform="translate(437.02,208.89)"><g><g><rect fill="rgb(77,175,74)" fill-opacity="0.75" height="6.0" rx="3.0" ry="3.0" stroke="none" width="6.0" x="0" y="0" /></g></g></g><g data-row-idx="108" transform="translate(355.89,258.73)"><g><g><rect fill="rgb(77,175,74)" fill-opacity="0.75" height="6.0" rx="3.0" ry="3.0" stroke="none" width="6.0" x="0" y="0" /></g></g></g><g data-row-idx="109" transform="translate(423.50,121.65)"><g><g><rect fill="rgb(77,175,74)" fill-opacity="0.75" height="6.0" rx="3.0" ry="3.0" stroke="none" width="6.0" x="0" y="0" /></g></g></g><g data-row-idx="110" transform="translate(328.84,171.50)"><g><g><rect fill="rgb(77,175,74)" fill-opacity="0.75" height="6.0" rx="3.0" ry="3.0" stroke="none" width="6.0" x="0" y="0" /></g></g></g><g data-row-idx="111" transform="translate(315.32,233.81)"><g><g><rect fill="rgb(77,175,74)" fill-opacity="0.75" height="6.0" rx="3.0" ry="3.0" stroke="none" width="6.0" x="0" y="0" /></g></g></g><g data-row-idx="112" transform="translate(369.41,196.42)"><g><g><rect fill="rgb(77,175,74)" fill-opacity="0.75" height="6.0" rx="3.0" ry="3.0" stroke="none" width="6.0" x="0" y="0" /></g></g></g><g data-row-idx="113" transform="translate(220.66,258.73)"><g><g><rect fill="rgb(77,175,74)" fill-opacity="0.75" height="6.0" rx="3.0" ry="3.0" stroke="none" width="6.0" x="0" y="0" /></g></g></g><g data-row-idx="114" transform="translate(234.18,221.35)"><g><g><rect fill="rgb(77,175,74)" fill-opacity="0.75" height="6.0" rx="3.0" ry="3.0" stroke="none" width="6.0" x="0" y="0" /></g></g></g><g data-row-idx="115" transform="translate(315.32,171.50)"><g><g><rect fill="rgb(77,175,74)" fill-opacity="0.75" height="6.0" rx="3.0" ry="3.0" stroke="none" width="6.0" x="0" y="0" /></g></g></g><g data-row-idx="116" transform="translate(328.84,196.42)"><g><g><rect fill="rgb(77,175,74)" fill-opacity="0.75" height="6.0" rx="3.0" ry="3.0" stroke="none" width="6.0" x="0" y="0" /></g></g></g><g data-row-idx="117" transform="translate(491.11,96.73)"><g><g><rect fill="rgb(77,175,74)" fill-opacity="0.75" height="6.0" rx="3.0" ry="3.0" stroke="none" width="6.0" x="0" y="0" /></g></g></g><g data-row-idx="118" transform="translate(491.11,246.27)"><g><g><rect fill="rgb(77,175,74)" fill-opacity="0.75" height="6.0" rx="3.0" ry="3.0" stroke="none" width="6.0" x="0" y="0" /></g></g></g><g data-row-idx="119" transform="translate(261.23,296.12)"><g><g><rect fill="rgb(77,175,74)" fill-opacity="0.75" height="6.0" rx="3.0" ry="3.0" stroke="none" width="6.0" x="0" y="0" /></g></g></g><g data-row-idx="120" transform="translate(382.93,171.50)"><g><g><rect fill="rgb(77,175,74)" fill-opacity="0.75" height="6.0" rx="3.0" ry="3.0" stroke="none" width="6.0" x="0" y="0" /></g></g></g><g data-row-idx="121" transform="translate(207.14,221.35)"><g><g><rect fill="rgb(77,175,74)" fill-opacity="0.75" height="6.0" rx="3.0" ry="3.0" stroke="none" width="6.0" x="0" y="0" /></g></g></g><g data-row-idx="122" transform="translate(491.11,221.35)"><g><g><rect fill="rgb(77,175,74)" fill-opacity="0.75" height="6.0" rx="3.0" ry="3.0" stroke="none" width="6.0" x="0" y="0" /></g></g></g><g data-row-idx="123" transform="translate(301.80,233.81)"><g><g><rect fill="rgb(77,175,74)" fill-opacity="0.75" height="6.0" rx="3.0" ry="3.0" stroke="none" width="6.0" x="0" y="0" /></g></g></g><g data-row-idx="124" transform="translate(355.89,159.04)"><g><g><rect fill="rgb(77,175,74)" fill-opacity="0.75" height="6.0" rx="3.0" ry="3.0" stroke="none" width="6.0" x="0" y="0" /></g></g></g><g data-row-idx="125" transform="translate(423.50,171.50)"><g><g><rect fill="rgb(77,175,74)" fill-opacity="0.75" height="6.0" rx="3.0" ry="3.0" stroke="none" width="6.0" x="0" y="0" /></g></g></g><g data-row-idx="126" transform="translate(288.27,221.35)"><g><g><rect fill="rgb(77,175,74)" fill-opacity="0.75" height="6.0" rx="3.0" ry="3.0" stroke="none" width="6.0" x="0" y="0" /></g></g></g><g data-row-idx="127" transform="translate(274.75,196.42)"><g><g><rect fill="rgb(77,175,74)" fill-opacity="0.75" height="6.0" rx="3.0" ry="3.0" stroke="none" width="6.0" x="0" y="0" /></g></g></g><g data-row-idx="128" transform="translate(315.32,221.35)"><g><g><rect fill="rgb(77,175,74)" fill-opacity="0.75" height="6.0" rx="3.0" ry="3.0" stroke="none" width="6.0" x="0" y="0" /></g></g></g><g data-row-idx="129" transform="translate(423.50,196.42)"><g><g><rect fill="rgb(77,175,74)" fill-opacity="0.75" height="6.0" rx="3.0" ry="3.0" stroke="none" width="6.0" x="0" y="0" /></g></g></g><g data-row-idx="130" transform="translate(450.55,221.35)"><g><g><rect fill="rgb(77,175,74)" fill-opacity="0.75" height="6.0" rx="3.0" ry="3.0" stroke="none" width="6.0" x="0" y="0" /></g></g></g><g data-row-idx="131" transform="translate(518.16,96.73)"><g><g><rect fill="rgb(77,175,74)" fill-opacity="0.75" height="6.0" rx="3.0" ry="3.0" stroke="none" width="6.0" x="0" y="0" /></g></g></g><g data-row-idx="132" transform="translate(315.32,221.35)"><g><g><rect fill="rgb(77,175,74)" fill-opacity="0.75" height="6.0" rx="3.0" ry="3.0" stroke="none" width="6.0" x="0" y="0" /></g></g></g><g data-row-idx="133" transform="translate(301.80,221.35)"><g><g><rect fill="rgb(77,175,74)" fill-opacity="0.75" height="6.0" rx="3.0" ry="3.0" stroke="none" width="6.0" x="0" y="0" /></g></g></g><g data-row-idx="134" transform="translate(274.75,246.27)"><g><g><rect fill="rgb(77,175,74)" fill-opacity="0.75" height="6.0" rx="3.0" ry="3.0" stroke="none" width="6.0" x="0" y="0" /></g></g></g><g data-row-idx="135" transform="translate(491.11,196.42)"><g><g><rect fill="rgb(77,175,74)" fill-opacity="0.75" height="6.0" rx="3.0" ry="3.0" stroke="none" width="6.0" x="0" y="0" /></g></g></g><g data-row-idx="136" transform="translate(301.80,146.58)"><g><g><rect fill="rgb(77,175,74)" fill-opacity="0.75" height="6.0" rx="3.0" ry="3.0" stroke="none" width="6.0" x="0" y="0" /></g></g></g><g data-row-idx="137" transform="translate(315.32,183.96)"><g><g><rect fill="rgb(77,175,74)" fill-opacity="0.75" height="6.0" rx="3.0" ry="3.0" stroke="none" width="6.0" x="0" y="0" /></g></g></g><g data-row-idx="138" transform="translate(261.23,196.42)"><g><g><rect fill="rgb(77,175,74)" fill-opacity="0.75" height="6.0" rx="3.0" ry="3.0" stroke="none" width="6.0" x="0" y="0" /></g></g></g><g data-row-idx="139" transform="translate(382.93,183.96)"><g><g><rect fill="rgb(77,175,74)" fill-opacity="0.75" height="6.0" rx="3.0" ry="3.0" stroke="none" width="6.0" x="0" y="0" /></g></g></g><g data-row-idx="140" transform="translate(355.89,183.96)"><g><g><rect fill="rgb(77,175,74)" fill-opacity="0.75" height="6.0" rx="3.0" ry="3.0" stroke="none" width="6.0" x="0" y="0" /></g></g></g><g data-row-idx="141" transform="translate(382.93,183.96)"><g><g><rect fill="rgb(77,175,74)" fill-opacity="0.75" height="6.0" rx="3.0" ry="3.0" stroke="none" width="6.0" x="0" y="0" /></g></g></g><g data-row-idx="142" transform="translate(234.18,233.81)"><g><g><rect fill="rgb(77,175,74)" fill-opacity="0.75" height="6.0" rx="3.0" ry="3.0" stroke="none" width="6.0" x="0" y="0" /></g></g></g><g data-row-idx="143" transform="translate(369.41,171.50)"><g><g><rect fill="rgb(77,175,74)" fill-opacity="0.75" height="6.0" rx="3.0" ry="3.0" stroke="none" width="6.0" x="0" y="0" /></g></g></g><g data-row-idx="144" transform="translate(355.89,159.04)"><g><g><rect fill="rgb(77,175,74)" fill-opacity="0.75" height="6.0" rx="3.0" ry="3.0" stroke="none" width="6.0" x="0" y="0" /></g></g></g><g data-row-idx="145" transform="translate(355.89,196.42)"><g><g><rect fill="rgb(77,175,74)" fill-opacity="0.75" height="6.0" rx="3.0" ry="3.0" stroke="none" width="6.0" x="0" y="0" /></g></g></g><g data-row-idx="146" transform="translate(301.80,258.73)"><g><g><rect fill="rgb(77,175,74)" fill-opacity="0.75" height="6.0" rx="3.0" ry="3.0" stroke="none" width="6.0" x="0" y="0" /></g></g></g><g data-row-idx="147" transform="translate(328.84,196.42)"><g><g><rect fill="rgb(77,175,74)" fill-opacity="0.75" height="6.0" rx="3.0" ry="3.0" stroke="none" width="6.0" x="0" y="0" /></g></g></g><g data-row-idx="148" transform="translate(288.27,146.58)"><g><g><rect fill="rgb(77,175,74)" fill-opacity="0.75" height="6.0" rx="3.0" ry="3.0" stroke="none" width="6.0" x="0" y="0" /></g></g></g><g data-row-idx="149" transform="translate(247.70,196.42)"><g><g><rect fill="rgb(77,175,74)" fill-opacity="0.75" height="6.0" rx="3.0" ry="3.0" stroke="none" width="6.0" x="0" y="0" /></g></g></g><g><g><g><polyline fill="none" points="34.34,216.34 237.18,67.07" stroke="rgb(228,26,28)" stroke-opacity="1.0" stroke-width="2.5" /></g></g></g><g><g><g><polyline fill="none" points="115.48,269.37 399.45,185.69" stroke="rgb(55,126,184)" stroke-opacity="1.0" stroke-width="2.5" /></g></g></g><g><g><g><polyline fill="none" points="115.48,251.45 521.16,164.75" stroke="rgb(77,175,74)" stroke-opacity="1.0" stroke-width="2.5" /></g></g></g><g transform="translate(61.39,351.00)"><g><text dominant-baseline="hanging" fill="rgb(102,102,102)" fill-opacity="1.0" font-size="11" text-anchor="middle">4.5</text></g></g><g transform="translate(129.00,351.00)"><g><text dominant-baseline="hanging" fill="rgb(102,102,102)" fill-opacity="1.0" font-size="11" text-anchor="middle">5.0</text></g></g><g transform="translate(196.61,351.00)"><g><text dominant-baseline="hanging" fill="rgb(102,102,102)" fill-opacity="1.0" font-size="11" text-anchor="middle">5.5</text></g></g><g transform="translate(264.23,351.00)"><g><text dominant-baseline="hanging" fill="rgb(102,102,102)" fill-opacity="1.0" font-size="11" text-anchor="middle">6.0</text></g></g><g transform="translate(331.84,351.00)"><g><text dominant-baseline="hanging" fill="rgb(102,102,102)" fill-opacity="1.0" font-size="11" text-anchor="middle">6.5</text></g></g><g transform="translate(399.45,351.00)"><g><text dominant-baseline="hanging" fill="rgb(102,102,102)" fill-opacity="1.0" font-size="11" text-anchor="middle">7.0</text></g></g><g transform="translate(467.07,351.00)"><g><text dominant-baseline="hanging" fill="rgb(102,102,102)" fill-opacity="1.0" font-size="11" text-anchor="middle">7.5</text></g></g><g transform="translate(534.68,351.00)"><g><text dominant-baseline="hanging" fill="rgb(102,102,102)" fill-opacity="1.0" font-size="11" text-anchor="middle">8.0</text></g></g><g transform="translate(7.00,318.55)"><g><text dominant-baseline="hanging" fill="rgb(102,102,102)" fill-opacity="1.0" font-size="11" text-anchor="end">2.0</text></g></g><g transform="translate(7.00,256.23)"><g><text dominant-baseline="hanging" fill="rgb(102,102,102)" fill-opacity="1.0" font-size="11" text-anchor="end">2.5</text></g></g><g transform="translate(7.00,193.92)"><g><text dominant-baseline="hanging" fill="rgb(102,102,102)" fill-opacity="1.0" font-size="11" text-anchor="end">3.0</text></g></g><g transform="translate(7.00,131.61)"><g><text dominant-baseline="hanging" fill="rgb(102,102,102)" fill-opacity="1.0" font-size="11" text-anchor="end">3.5</text></g></g><g transform="translate(7.00,69.30)"><g><text dominant-baseline="hanging" fill="rgb(102,102,102)" fill-opacity="1.0" font-size="11" text-anchor="end">4.0</text></g></g><g transform="translate(7.00,6.99)"><g><text dominant-baseline="hanging" fill="rgb(102,102,102)" fill-opacity="1.0" font-size="11" text-anchor="end">4.5</text></g></g></g></g></g></svg>